<svg width="668" height="668" viewBox="0 0 668 668" fill="none" xmlns="http://www.w3.org/2000/svg">
<path fill-rule="evenodd" clip-rule="evenodd" d="M667.333 334C667.333 518.093 518.093 667.333 334 667.333C149.905 667.333 0.666504 518.093 0.666504 334C0.666504 149.905 149.905 0.666687 334 0.666687C518.093 0.666687 667.333 149.905 667.333 334ZM468.343 232.989C478.106 242.752 478.106 258.581 468.343 268.343L301.676 435.01C291.913 444.773 276.087 444.773 266.322 435.01L199.655 368.343C189.892 358.58 189.892 342.753 199.655 332.99C209.418 323.227 225.248 323.227 235.011 332.99L284 381.977L358.493 307.483L432.99 232.989C442.753 223.226 458.58 223.226 468.343 232.989Z" fill="#785DFB"/>
</svg>
