<?xml version="1.0" encoding="UTF-8"?> <svg xmlns="http://www.w3.org/2000/svg" id="Capa_2" data-name="Capa 2" viewBox="0 0 438.83 92.81"><defs><style> .cls-1 { fill: #a479fc; } .cls-2 { fill: #cc6dfc; } .cls-3 { fill: #d25ae5; } .cls-4 { fill: #0a105d; } .cls-5 { fill: #3e7afb; } .cls-6 { fill: #8450f5; } .cls-7 { fill: #6092fc; } .cls-8 { fill: #785dfb; } .cls-9 { fill: #77b6fc; } </style></defs><g id="Capa_1-2" data-name="Capa 1"><g><path class="cls-4" d="m51.4,36.15v55.44h-7.11l-4.37-8.2c-1.75,4.48-7.33,9.3-18.37,9.3-13.45,0-21.54-7.55-21.54-20.89v-35.65h15.64v30.29c0,7.98,3.17,11.59,9.62,11.59,6.89,0,10.61-3.72,10.61-11.37v-30.51h15.53Z"></path><path class="cls-4" d="m92.1,35.94v13.89l-.55.22c-1.53-.22-3.5-.44-6.23-.44-8.09,0-12.79,4.37-12.79,13.78v28.21h-15.64v-55.44h6.01l5.91,8.31c1.86-4.81,7-9.41,15.86-9.41,3.28,0,5.8.33,7.44.88Z"></path><path class="cls-4" d="m154.34,62.62c0,19.25-12.79,30.07-31.6,30.07-11.7,0-21.43-3.5-25.15-5.25V11h15.64v30.95c2.73-4.05,9.08-6.89,17.06-6.89,15.2,0,24.06,12.58,24.06,27.56Zm-15.75.66c0-7.55-4.48-14.11-12.79-14.11-7.76,0-12.58,4.26-12.58,11.04v17.72c2.84.88,6.23,1.31,9.08,1.31,8.97,0,16.29-5.58,16.29-15.97Z"></path><path class="cls-4" d="m209.21,57.26v34.34h-7.11l-4.37-8.42c-1.64,4.81-7.22,9.51-19.03,9.51s-20.01-5.58-20.01-17.17,7.76-17.72,22.96-17.72h12.79v-.55c0-5.8-4.37-8.53-11.81-8.53s-14.87,1.2-18.7,1.97l-.55-.22v-13.01c3.72-1.09,13.12-2.41,21.76-2.41,16.29,0,24.06,8.53,24.06,22.2Zm-14.76,12.47v-1.86h-11.37c-6.01,0-9.51,2.3-9.51,6.34s3.28,6.01,8.2,6.01c7.55,0,12.69-4.48,12.69-10.5Z"></path><path class="cls-4" d="m209.09,36.28h17.39l12.9,38.71h.44l12.58-38.71h16.95l-21.54,55.44h-16.84l-21.87-55.44Z"></path><path class="cls-4" d="m274.83,36.28h15.53v55.44h-15.53v-55.44Z"></path><path class="cls-4" d="m347.8,68.65h-37.29c2.41,7.55,10.28,10.5,19.57,10.5,5.25,0,11.04-.77,14.11-1.64l.55.22v12.79c-3.17,1.2-10.83,2.3-17.06,2.3-19.79,0-31.82-11.04-31.82-29.31,0-16.95,12.36-28.32,28.21-28.32s24.61,10.5,24.61,24.39c0,3.39-.55,7.33-.88,9.08Zm-13.01-11.7c0-4.92-4.7-8.86-10.72-8.86-6.45,0-12.14,4.16-13.78,10.94,2.08-.55,5.25-.88,9.4-.88h15.09v-1.2Z"></path><path class="cls-4" d="m348.72,36.28h17.06l9.4,38.27h.44l11.15-38.27h14.43l11.04,38.27h.44l9.3-38.27h16.84l-17.28,55.44h-16.18l-11.37-35.87h-.44l-11.59,35.87h-16.08l-17.17-55.44Z"></path><g><g><rect class="cls-1" x="267.02" y="20.54" width="16.47" height="5.49" transform="translate(64.15 201.45) rotate(-45)"></rect><rect class="cls-3" x="272.5" y="-.47" width="5.49" height="16.47" transform="translate(75.13 196.9) rotate(-45)"></rect><rect class="cls-7" x="282.54" y="5.02" width="16.47" height="5.49" transform="translate(79.68 207.88) rotate(-45)"></rect><rect class="cls-8" x="288.03" y="15.05" width="5.49" height="16.47" transform="translate(68.7 212.43) rotate(-45)"></rect></g><rect class="cls-2" x="267.49" y="12.78" width="5.49" height="5.49"></rect><rect class="cls-5" x="293.05" y="12.78" width="5.49" height="5.49"></rect><rect class="cls-9" x="280.27" width="5.49" height="5.49"></rect><rect class="cls-6" x="280.27" y="25.56" width="5.49" height="5.49"></rect></g></g></g></svg> 